#!OML:ASF I:\Actors\actors\Patient Classification 2\Patient 1\Session 1\actor1.ASF
:FULLY-SPECIFIED
:DEGREES
315
root -0.589198 18.7426 5.70867 3.89259 -2.94925 -2.55507
lowerback 3.33423 0.528661 -2.6203
upperback -0.11433 0.560423 -1.97302
thorax -1.99269 0.296175 -0.584425
lowerneck -12.9201 -1.92578 -1.62118
upperneck 33.5235 -3.7753 3.9319
head 13.5871 -1.35643 1.26446
rclavicle -8.74653e-015 2.70347e-014
rhumerus -15.3437 36.7592 -88.3479
rradius 93.5374
rwrist 13.0028
rhand -9.13212 -62.644
rfingers 7.12502
rthumb 16.8193 -268.064
lclavicle -8.74653e-015 2.70347e-014
lhumerus -9.46827 -31.2145 83.9727
lradius 78.245
lwrist -5.13168
lhand 14.5283 -26.4698
lfingers 7.12502
lthumb 39.4075 -1.06772
rfemur 0 0 0
rtibia 0
rfoot 0 0
rtoes 0
lfemur -6.49014 -6.3534 -11.9977
ltibia 22.3419
lfoot -24.4344 15.9262
ltoes -53.7465
316
root -0.589958 18.742 5.71029 3.8553 -3.25513 -2.58256
lowerback 3.32106 0.635517 -2.64716
upperback -0.126012 0.701501 -1.98825
thorax -1.99878 0.366795 -0.592136
lowerneck -12.9563 -1.912 -1.58464
upperneck 33.5936 -3.8004 4.02259
head 13.6288 -1.34958 1.29098
rclavicle 6.85807e-015 -3.97569e-014
rhumerus -13.8155 36.9775 -87.4702
rradius 92.6854
rwrist 12.5435
rhand -9.12951 -62.8572
rfingers 7.12502
rthumb 16.8218 -267.851
lclavicle 6.85807e-015 -3.97569e-014
lhumerus -9.5558 -31.2999 83.9639
lradius 78.324
lwrist -5.24863
lhand 14.2835 -26.5344
lfingers 7.12502
lthumb 39.1768 -1.06521
rfemur 0 0 0
rtibia 0
rfoot 0 0
rtoes 0
lfemur -6.35404 -6.10703 -11.9915
ltibia 22.3201
lfoot -24.4653 16.0053
ltoes -53.8316
317
root -0.591511 18.7411 5.71153 3.81922 -3.518 -2.64124
lowerback 3.26546 0.739985 -2.57108
upperback -0.106523 0.845235 -2.05351
thorax -1.9468 0.436895 -0.707959
lowerneck -12.9629 -1.91069 -1.48926
upperneck 33.5904 -3.84266 4.07345
head 13.6302 -1.34913 1.28786
rclavicle -3.18055e-015 1.74931e-014
rhumerus -12.4071 37.1694 -86.7515
rradius 91.7238
rwrist 12.0756
rhand -8.97262 -62.967
rfingers 7.12502
rthumb 16.9728 -267.755
lclavicle -3.18055e-015 1.74931e-014
lhumerus -9.61544 -31.4509 83.8656
lradius 78.4287
lwrist -5.30641
lhand 13.9698 -26.6064
lfingers 7.12502
lthumb 38.881 -1.05243
rfemur 0 0 0
rtibia 0
rfoot 0 0
rtoes 0
lfemur -6.2363 -5.91388 -11.9492
ltibia 22.3075
lfoot -24.4869 16.093
ltoes -53.9172
318
root -0.592427 18.7412 5.71012 3.78739 -3.65734 -2.64777
lowerback 3.11265 0.795621 -2.64948
upperback -0.00606061 0.925936 -2.05939
thorax -1.75957 0.475971 -0.670575
lowerneck -12.9906 -1.92024 -1.45563
upperneck 33.501 -3.86446 4.08208
head 13.5974 -1.35373 1.2806
rclavicle 2.88238e-014 -1.90833e-014
rhumerus -11.0117 37.4593 -85.974
rradius 90.7206
rwrist 11.869
rhand -8.90696 -62.9396
rfingers 7.12502
rthumb 17.036 -267.787
lclavicle 2.88238e-014 -1.90833e-014
lhumerus -9.53542 -31.4843 83.7775
lradius 78.5515
lwrist -5.26216
lhand 13.9616 -26.5694
lfingers 7.12502
lthumb 38.8733 -1.01318
rfemur 0 0 0
rtibia 0
rfoot 0 0
rtoes 0
lfemur -6.1688 -5.85625 -11.9611
ltibia 22.3041
lfoot -24.52 16.1625
ltoes -53.9587
319
root -0.592846 18.742 5.70752 3.7711 -3.71444 -2.63985
lowerback 2.69218 0.794947 -2.93777
upperback 0.289974 0.945564 -1.94031
thorax -1.22671 0.48188 -0.378254
lowerneck -13.2008 -1.91768 -1.5491
upperneck 33.3235 -3.83121 4.10006
head 13.567 -1.3472 1.30541
rclavicle 1.21259e-014 -9.54166e-015
rhumerus -9.42301 37.9 -84.9937
rradius 89.7775
rwrist 11.8544
rhand -8.88894 -62.9823
rfingers 7.12502
rthumb 17.0533 -267.746
lclavicle 1.21259e-014 -9.54166e-015
lhumerus -9.06072 -31.2866 83.6576
lradius 78.6135
lwrist -5.17264
lhand 14.0413 -26.504
lfingers 7.12502
lthumb 38.9485 -0.969216
rfemur 0 0 0
rtibia 0
rfoot 0 0
rtoes 0
lfemur -6.13879 -5.90702 -11.9837
ltibia 22.3024
lfoot -24.558 16.2463
ltoes -53.9659
